<?xml version="1.0" standalone="no"?>
<!DOCTYPE svg PUBLIC "-//W3C//DTD SVG 20010904//EN"
 "http://www.w3.org/TR/2001/REC-SVG-20010904/DTD/svg10.dtd">
<svg version="1.0" xmlns="http://www.w3.org/2000/svg"
 width="1000.000000pt" height="888.000000pt" viewBox="0 0 1000.000000 888.000000"
 preserveAspectRatio="xMidYMid meet">
<metadata>
Created by potrace 1.15, written by Peter Selinger 2001-2017
</metadata>
<g transform="translate(0.000000,888.000000) scale(0.100000,-0.100000)"
fill="#000000" stroke="none">
<path d="M2560 6439 c0 -10 19 -39 271 -414 295 -437 372 -551 383 -563 9 -9
230 -13 1026 -15 866 -2 1020 -5 1050 -17 57 -24 132 -76 177 -122 37 -39 53
-67 92 -161 18 -46 14 -185 -8 -246 -39 -105 -125 -194 -241 -250 l-55 -26
-733 -3 c-403 -2 -732 -7 -730 -11 5 -12 80 -126 143 -218 101 -146 408 -599
445 -657 19 -30 106 -159 193 -288 87 -128 192 -282 233 -343 41 -60 125 -184
187 -274 61 -90 118 -174 125 -187 l13 -24 605 0 c557 0 606 1 600 16 -4 9
-46 72 -94 141 -48 68 -93 135 -101 150 -7 14 -33 53 -57 87 -24 33 -110 160
-191 281 -81 121 -173 256 -205 300 -61 85 -71 115 -39 115 37 0 275 130 367
201 300 228 491 557 549 946 29 197 10 406 -57 608 -42 129 -119 283 -191 385
-120 168 -355 371 -517 447 -153 71 -320 123 -463 142 -109 15 -2777 15 -2777
0z"/>
</g>
</svg>
